<svg xmlns="http://www.w3.org/2000/svg" viewBox="0 0 1249.02 1141.29"><defs><style>.cls-1{isolation:isolate;}.cls-2,.cls-9{fill:#cbcaca;}.cls-26,.cls-27,.cls-3,.cls-36,.cls-38{fill:#fff;}.cls-4{fill:#dedfdf;}.cls-5{fill:#f2f2f2;opacity:0.44;}.cls-29,.cls-6{opacity:0.05;}.cls-6{mix-blend-mode:multiply;}.cls-10,.cls-7{fill:#010101;}.cls-8{fill:#34baed;}.cls-9{opacity:0.3;}.cls-10,.cls-17,.cls-26{opacity:0.5;}.cls-11{fill:#bfb9dd;}.cls-12{fill:#679f37;}.cls-13{fill:#95c245;}.cls-14{fill:#71b749;}.cls-15{fill:#629632;}.cls-16{fill:#95c345;}.cls-17{fill:#e9e6f4;}.cls-18{fill:#fac235;}.cls-19{fill:#f4bd25;}.cls-20{fill:#f5b01b;}.cls-21{fill:none;}.cls-22{fill:#24bbe6;opacity:0.18;}.cls-23{fill:#10a7e0;}.cls-24{fill:#1d1d1b;opacity:0.1;}.cls-25{fill:#db4692;}.cls-27{opacity:0.08;}.cls-28{fill:#077fb7;}.cls-30{fill:#15599a;}.cls-31,.cls-36{opacity:0.37;}.cls-32,.cls-38{opacity:0.13;}.cls-33{fill:#fab437;}.cls-34{fill:#facb32;}.cls-35{fill:#f5aa31;}.cls-37{fill:#64718a;}</style></defs><g class="cls-1"><g id="Layer_2" data-name="Layer 2"><g id="Layer_9" data-name="Layer 9"><rect class="cls-2" x="378.51" y="436.15" width="422.87" height="222.62" rx="11.1"/><rect class="cls-3" x="388.33" y="444.08" width="403.25" height="206.77"/><path class="cls-4" d="M354.9,659H825a0,0,0,0,1,0,0v0a23.57,23.57,0,0,1-23.57,23.57H378.48A23.57,23.57,0,0,1,354.9,659v0A0,0,0,0,1,354.9,659Z"/><path class="cls-5" d="M753.61,650.84H388.33V444.08c9.3,26.89,30.27,70.64,80.88,112.08C573.56,641.59,721.37,649.62,753.61,650.84Z"/><g class="cls-6"><rect class="cls-7" x="655.59" y="491.04" width="92.68" height="92.68" rx="7.43"/></g><rect class="cls-8" x="647.08" y="482.54" width="92.68" height="92.68" rx="7.43"/><path class="cls-3" d="M659.78,551.77a3.07,3.07,0,0,1-.92-2.26V508.25a3,3,0,0,1,.92-2.29,3.11,3.11,0,0,1,2.25-.88h27.55a3.11,3.11,0,0,1,2.26.82,2.86,2.86,0,0,1,.85,2.16,2.7,2.7,0,0,1-.85,2.08,3.22,3.22,0,0,1-2.26.79H665.2v14.81h17.49a3.18,3.18,0,0,1,2.23.82,3,3,0,0,1,0,4.21,3.13,3.13,0,0,1-2.23.82H665.2v15.24h24.38a3.22,3.22,0,0,1,2.26.79,2.7,2.7,0,0,1,.85,2.08,2.86,2.86,0,0,1-.85,2.16,3.11,3.11,0,0,1-2.26.82H662A3.05,3.05,0,0,1,659.78,551.77Z"/><path class="cls-3" d="M728,549.82a2.77,2.77,0,0,1-.82,2,3,3,0,0,1-2.22.82,3.08,3.08,0,0,1-2.75-1.52l-10.48-16.82h-8.9v15.17a3.16,3.16,0,0,1-.88,2.26,3.19,3.19,0,0,1-5.46-2.26V508.25a3,3,0,0,1,.92-2.29,3.09,3.09,0,0,1,2.25-.88h11a17,17,0,0,1,8.08,1.89,13.63,13.63,0,0,1,5.55,5.3,15.28,15.28,0,0,1,2,7.8,13.63,13.63,0,0,1-8.17,12.74l9.33,15A3.79,3.79,0,0,1,728,549.82Zm-17.37-21.34a10,10,0,0,0,6.83-2.34,7.69,7.69,0,0,0,2.68-6.07,8.69,8.69,0,0,0-2.68-6.58,9.47,9.47,0,0,0-6.83-2.56h-7.8v17.55Z"/><path class="cls-9" d="M514.78,508.07h99.06a6.64,6.64,0,1,0,0-13.27H514.78a6.64,6.64,0,1,0,0,13.27Z"/><rect class="cls-9" x="543.12" y="515.6" width="77.36" height="13.28" rx="6.64"/><rect class="cls-9" x="605.16" y="536.41" width="15.32" height="13.28" rx="6.64"/><g class="cls-6"><path class="cls-7" d="M137.68,477.11c-7.19,1.68-13-10.75-29.09-5.89s-25.71,41-3.25,52.71,24.31,30.91,21.94,44.64-15.16,54.95,54.52,42.28c10.75-3.47,33.46-39.92,13.71-62.18s-36.5-17.45-32.22-37.55S157.28,472.52,137.68,477.11Z"/><path class="cls-7" d="M137.68,477.11c-7.19,1.68-13-10.75-29.09-5.89s-25.71,41-3.25,52.71,24.31,30.91,21.94,44.64-15.16,54.95,54.52,42.28c10.75-3.47,33.46-39.92,13.71-62.18s-36.5-17.45-32.22-37.55S157.28,472.52,137.68,477.11Z"/><path class="cls-7" d="M193.79,629.42c-.2-.45-10.45-22.93-25.76-52.26l16.36-30.32a.81.81,0,0,0-.22-1,.62.62,0,0,0-.91.25l-16,29.64c-7.43-14.21-16-29.93-25.19-45.51l6.28-42a.74.74,0,0,0-.54-.86.67.67,0,0,0-.76.61L141,528.38a539.85,539.85,0,0,0-31.5-48,.86.86,0,0,0-1.31-.12,1.14,1.14,0,0,0-.11,1.49c6.7,8.93,13.41,18.83,20,29.15l-25.34-6a.66.66,0,0,0-.78.58.74.74,0,0,0,.51.88l26.75,6.3C147.24,541.37,164,573,175.64,596.24h-41a.76.76,0,0,0,0,1.5h41.75C186,616.92,192,630,192.13,630.38a.93.93,0,0,0,.83.58.85.85,0,0,0,.43-.12A1.11,1.11,0,0,0,193.79,629.42Z"/><path class="cls-7" d="M214.41,586.24c16.94,5.22,34.4-18.23,24.36-38s9.59-17.34,7-31.46-10.39-21.11-3.39-27.55,4.69-37.19-12.73-38.8-4.46,27.07-3.34,33.41-1.34,18.71-12.39,21.42-13.67,16.81-4.09,26.71S194.41,542,193.21,555.42,194.7,580.18,214.41,586.24Z"/><path class="cls-7" d="M242.1,515.8a.37.37,0,0,0-.53.2c-2.25,5.14-10.41,10-13.34,11.57.17-.77.34-1.53.52-2.29,3.28-14.47,6.43-28.45,6.38-41.86,3.12-4.9,3.78-10.65,4.25-14.87.12-1.07.23-2.05.36-2.93a.45.45,0,0,0-.32-.52.4.4,0,0,0-.46.37c-.14.89-.25,1.89-.37,3-.45,4-1,8.93-3.46,13.36a61.6,61.6,0,0,0-5.23-24.24.63.63,0,0,0-.89-.32.79.79,0,0,0-.29,1c9.23,20.48,4.14,42.91-1.26,66.67-.67,3-1.36,6-2,9-1.9-4-7.24-15.31-8.36-19.77a.38.38,0,0,0-.49-.31.46.46,0,0,0-.28.55c1.27,5,7.51,18.05,8.85,20.83-1.51,7-2.88,14.16-3.78,21.42l-7.38-13a.37.37,0,0,0-.55-.13.48.48,0,0,0-.12.61L221.21,558l0,.19c-4.14,36.1-17.68,71-17.81,71.39a.79.79,0,0,0,.34,1,.58.58,0,0,0,.26.06.67.67,0,0,0,.61-.45,342.74,342.74,0,0,0,16.35-60.64c2.4-.78,12.72-4.41,18.7-10.93a.48.48,0,0,0,0-.63.36.36,0,0,0-.56,0c-5.59,6.08-15.09,9.61-18,10.58.54-3.36,1-6.76,1.4-10.16A282.76,282.76,0,0,1,228,528.7c2.25-1.17,11.73-6.41,14.31-12.3A.48.48,0,0,0,242.1,515.8Z"/><path class="cls-7" d="M196.41,611s18.88-13.28,19.49-41.05-22.84-22.31-19.14-42.54,16.82-44.08,1.42-56.75-35.7,1.33-25.39-23.24c9.26-22.07-21.26-38-32.24-33.2s-15.78,22.18.66,38c7.41,7.13,3.71,15.85-3.65,25.42-7.94,10.33-14.12,25.16,1.65,34.19,16.85,9.65-11,18.26-4.55,35.76s32.62,9.2,27.41,22.79C156.3,585.47,124.36,601.14,196.41,611Z"/><path class="cls-10" d="M196.76,527.38c3.69-20.23,16.82-44.08,1.42-56.75s-35.7,1.33-25.39-23.24c6.33-15.07-5.91-27.29-17.8-32a30.36,30.36,0,0,1,10.48,14c2.49,7.38-14.07,34.92,10.33,39s30.46,8.79,23.3,32.68-17.13,34.44,0,45.33,15.72,36.28-2.57,54.68c-.07,6.23-.26,7.8-.11,9.84.08-.06,18.87-13.34,19.48-41.05S193.06,547.61,196.76,527.38Z"/><path class="cls-7" d="M203.62,559.51a.63.63,0,0,0-.94.09l-12,15.95c-3.77-18.62-8.75-40.58-15.11-63.5,2.13-3.1,13.33-19.68,18-30.63a.79.79,0,0,0-.31-1,.64.64,0,0,0-.89.35c-4.26,10.07-14.19,25-17.25,29.54-7.92-28.28-17.92-57.91-30.3-84.41a.89.89,0,0,0-1.26-.45,1.13,1.13,0,0,0-.39,1.43c10,21.32,18.37,44.67,25.39,67.71-5.11-1.91-20.63-7.63-26.54-9a.67.67,0,0,0-.78.59.77.77,0,0,0,.52.88c6.19,1.39,23.68,7.9,27.34,9.27,5.29,17.5,9.77,34.79,13.52,50.84-6.05-1.33-30.23-6.61-38.5-8.35a.68.68,0,0,0-.77.6.74.74,0,0,0,.52.87c8.6,1.81,34.38,7.44,39.12,8.48,3.64,15.68,6.56,30.13,8.83,42.35l-30.49-2.5a.68.68,0,0,0-.71.69.72.72,0,0,0,.61.8l30.88,2.53c4.13,22.39,6,37,6.07,37.37a1,1,0,0,0,.93.91h.13a1,1,0,0,0,.79-1.2c-.06-.49-2.81-21.67-9-52.38l12.63-16.8A.83.83,0,0,0,203.62,559.51Z"/></g><path class="cls-11" d="M122.66,462.08c-7.2,1.69-13-10.74-29.09-5.88s-25.71,41-3.25,52.71,24.31,30.91,21.93,44.64-15.15,54.94,54.53,42.28c10.74-3.48,33.46-39.92,13.71-62.19S144,516.2,148.27,496.1,142.26,457.49,122.66,462.08Z"/><path class="cls-12" d="M122.66,462.08c-7.2,1.69-13-10.74-29.09-5.88s-25.71,41-3.25,52.71,24.31,30.91,21.93,44.64-15.15,54.94,54.53,42.28c10.74-3.48,33.46-39.92,13.71-62.19S144,516.2,148.27,496.1,142.26,457.49,122.66,462.08Z"/><path class="cls-13" d="M178.77,614.4c-.21-.45-10.46-22.93-25.76-52.27l16.36-30.31a.81.81,0,0,0-.22-1,.62.62,0,0,0-.91.25l-16,29.63c-7.43-14.2-16-29.93-25.19-45.5l6.28-42a.75.75,0,0,0-.54-.86.7.7,0,0,0-.77.62l-6,40.46a545.59,545.59,0,0,0-31.5-48,.87.87,0,0,0-1.32-.13,1.17,1.17,0,0,0-.11,1.49c6.7,8.94,13.42,18.84,20,29.16l-25.35-6a.67.67,0,0,0-.78.57.77.77,0,0,0,.51.89l26.76,6.3c18,28.65,34.78,60.27,46.45,83.52h-41a.72.72,0,0,0-.66.75.71.71,0,0,0,.66.74h41.75C171,601.9,177,615,177.11,615.36a.92.92,0,0,0,.83.57.8.8,0,0,0,.42-.11A1.13,1.13,0,0,0,178.77,614.4Z"/><path class="cls-14" d="M199.39,571.22c16.93,5.21,34.4-18.24,24.36-38s9.59-17.34,7-31.46-10.39-21.11-3.4-27.55,4.7-37.19-12.72-38.81-4.46,27.07-3.34,33.42-1.35,18.71-12.4,21.41-13.67,16.82-4.09,26.72S179.39,527,178.18,540.4,179.67,565.15,199.39,571.22Z"/><path class="cls-15" d="M227.07,500.77a.38.38,0,0,0-.53.21c-2.24,5.14-10.41,10-13.34,11.56.18-.76.35-1.53.52-2.29,3.29-14.46,6.44-28.44,6.38-41.86,3.13-4.89,3.78-10.64,4.25-14.86.12-1.07.23-2.06.37-2.93a.44.44,0,0,0-.32-.52.4.4,0,0,0-.46.36c-.14.89-.25,1.89-.37,3-.45,4-1,8.93-3.47,13.36a61.55,61.55,0,0,0-5.22-24.24.64.64,0,0,0-.89-.33.79.79,0,0,0-.29,1c9.23,20.47,4.13,42.91-1.26,66.66-.68,3-1.36,6-2,9-1.9-4-7.24-15.31-8.37-19.78a.39.39,0,0,0-.49-.31.47.47,0,0,0-.27.56c1.27,5,7.5,18.05,8.85,20.83-1.51,7-2.88,14.15-3.79,21.41l-7.37-13a.37.37,0,0,0-.55-.14.48.48,0,0,0-.12.62L206.18,543a1.23,1.23,0,0,0,0,.19c-4.15,36.1-17.68,71-17.82,71.39a.79.79,0,0,0,.34,1,.54.54,0,0,0,.27.07.68.68,0,0,0,.61-.45,342.22,342.22,0,0,0,16.34-60.64c2.4-.78,12.72-4.41,18.7-10.93a.49.49,0,0,0,0-.64.38.38,0,0,0-.56,0c-5.59,6.09-15.08,9.61-18,10.59.54-3.36,1-6.76,1.4-10.17a280,280,0,0,1,5.48-29.7c2.24-1.18,11.73-6.41,14.3-12.31A.47.47,0,0,0,227.07,500.77Z"/><path class="cls-16" d="M181.39,596s18.88-13.28,19.48-41.05S178,532.59,181.73,512.35s16.83-44.07,1.43-56.75-35.71,1.34-25.39-23.23c9.26-22.07-21.27-38-32.25-33.2s-15.78,22.18.67,38c7.4,7.14,3.71,15.85-3.66,25.43-7.93,10.32-14.12,25.16,1.65,34.19,16.85,9.65-11,18.25-4.54,35.76s32.61,9.19,27.41,22.78C141.28,570.44,109.34,586.12,181.39,596Z"/><path class="cls-17" d="M181.73,512.35c3.7-20.23,16.83-44.07,1.43-56.75s-35.71,1.34-25.39-23.23c6.32-15.08-5.91-27.29-17.8-32a30.51,30.51,0,0,1,10.48,14c2.49,7.38-14.07,34.91,10.33,39s30.46,8.78,23.3,32.68-17.13,34.43,0,45.33,15.72,36.28-2.57,54.68c-.08,6.23-.26,7.79-.12,9.83.08-.05,18.88-13.33,19.48-41S178,532.59,181.73,512.35Z"/><path class="cls-15" d="M188.59,544.49a.6.6,0,0,0-.93.09l-12,15.95c-3.76-18.62-8.74-40.58-15.1-63.5,2.12-3.11,13.33-19.69,18-30.64a.79.79,0,0,0-.32-1,.63.63,0,0,0-.88.35c-4.26,10.06-14.19,25-17.26,29.54-7.91-28.28-17.91-57.91-30.29-84.42a.89.89,0,0,0-1.26-.44,1.13,1.13,0,0,0-.39,1.43c10,21.31,18.37,44.67,25.39,67.71-5.11-1.91-20.63-7.63-26.54-9a.67.67,0,0,0-.78.58.75.75,0,0,0,.52.88c6.18,1.4,23.68,7.9,27.33,9.27,5.29,17.51,9.78,34.8,13.52,50.84-6.05-1.32-30.23-6.6-38.5-8.34a.68.68,0,0,0-.77.6.75.75,0,0,0,.53.87c8.6,1.81,34.38,7.44,39.12,8.47,3.63,15.69,6.56,30.13,8.83,42.36l-30.5-2.5a.69.69,0,0,0-.71.69.73.73,0,0,0,.62.8l30.87,2.53c4.13,22.39,6,37,6.08,37.37a1,1,0,0,0,.93.9h.13a1,1,0,0,0,.79-1.19c-.06-.5-2.81-21.67-9-52.38l12.63-16.81A.81.81,0,0,0,188.59,544.49Z"/><path class="cls-18" d="M110.5,676.55a10.65,10.65,0,0,0,9.57,6H224.15a10.65,10.65,0,0,0,9.57-6l18.66-38.35H91.84Z"/><path class="cls-19" d="M257.45,625.31a10.64,10.64,0,0,0-10.64-10.65H97.41A10.65,10.65,0,0,0,87.84,630l4,8.23H252.38l4-8.23A10.61,10.61,0,0,0,257.45,625.31Z"/><path class="cls-20" d="M260.29,635.48v-16.4c0-3.32-4.59-6-10.29-6H94.22c-5.68,0-10.29,2.7-10.29,6v16.4Z"/><g class="cls-6"><rect x="15.02" y="167.74" width="131.28" height="131.28" rx="18.36"/></g><rect class="cls-3" y="152.71" width="131.28" height="131.28" rx="18.36"/><path class="cls-21" d="M20.9,173.61h89.48V263.1H20.9Z"/><path class="cls-22" d="M65.64,197.85c-9.28,0-14.91,7.53-14.91,16.77V237H80.55V214.62C80.55,205.38,74.92,197.85,65.64,197.85Z"/><path class="cls-23" d="M65.64,255.64a7.49,7.49,0,0,0,7.46-7.46H58.18A7.49,7.49,0,0,0,65.64,255.64Zm22.37-41c0-11.44-6.08-21-16.78-23.56v-2.54a5.59,5.59,0,0,0-11.18,0v2.54c-10.67,2.54-16.78,12.08-16.78,23.56v18.65l-7.46,7.45v3.73H95.47v-3.73L88,233.27ZM80.55,237H50.73V214.62c0-9.24,5.63-16.77,14.91-16.77s14.91,7.53,14.91,16.77ZM49.16,188.82l-5.33-5.33a38.86,38.86,0,0,0-15.36,29.27h7.45A31.5,31.5,0,0,1,49.16,188.82Zm46.2,23.94h7.45a39.11,39.11,0,0,0-15.36-29.27l-5.29,5.33A31.7,31.7,0,0,1,95.36,212.76Z"/><g class="cls-6"><rect x="346.77" y="24.75" width="131.28" height="131.28" rx="18.36" transform="translate(-0.82 3.83) rotate(-0.53)"/></g><rect class="cls-3" x="331.74" y="9.73" width="131.28" height="131.28" rx="18.36" transform="translate(-0.68 3.69) rotate(-0.53)"/><path class="cls-21" d="M346.37,24.35h102v102h-102Z"/><path class="cls-22" d="M401.63,79.62l-12.75-9.57-12.75,9.57V41.36h-4.25v68h51v-68H401.63Z"/><path class="cls-23" d="M422.89,32.86h-51a8.53,8.53,0,0,0-8.51,8.5v68a8.53,8.53,0,0,0,8.51,8.5h51a8.52,8.52,0,0,0,8.5-8.5v-68A8.52,8.52,0,0,0,422.89,32.86Zm-38.26,8.5h8.5V62.61l-4.25-3.19-4.25,3.19Zm38.26,68h-51v-68h4.25V79.62l12.75-9.57,12.75,9.57V41.36h21.26Z"/><g class="cls-6"><rect x="611.45" y="185.32" width="131.28" height="131.28" rx="18.36" transform="translate(-2.3 6.29) rotate(-0.53)"/></g><rect class="cls-3" x="596.42" y="170.29" width="131.28" height="131.28" rx="18.36" transform="translate(-2.16 6.15) rotate(-0.53)"/><path class="cls-21" d="M609.33,183.2H714.8V288.67H609.33Z"/><path class="cls-22" d="M631.3,205.17v61.52h61.52V205.17Zm39.55,52.73H640.09v-8.79h30.76ZM684,240.33H640.09v-8.79H684Zm0-17.58H640.09V214H684Z"/><path class="cls-23" d="M640.09,249.11h30.76v8.79H640.09Zm0-17.57H684v8.79H640.09Zm0-17.58H684v8.79H640.09Zm52.73-17.58H674.46a13.13,13.13,0,0,0-24.79,0H631.3a7.3,7.3,0,0,0-1.76.18,8.81,8.81,0,0,0-4.43,2.41,9,9,0,0,0-2.6,6.2v61.52a8.93,8.93,0,0,0,2.6,6.24,8.75,8.75,0,0,0,4.43,2.42,11.21,11.21,0,0,0,1.76.13h61.52a8.81,8.81,0,0,0,8.79-8.79V205.17A8.82,8.82,0,0,0,692.82,196.38Zm-30.76-1.1a3.3,3.3,0,1,1-3.29,3.3A3.33,3.33,0,0,1,662.06,195.28Zm30.76,71.41H631.3V205.17h61.52Z"/><g class="cls-6"><rect x="923.55" y="15.46" width="131.28" height="131.28" rx="18.36" transform="translate(-0.71 9.17) rotate(-0.53)"/></g><rect class="cls-3" x="908.53" y="0.44" width="131.28" height="131.28" rx="18.36" transform="translate(-0.57 9.03) rotate(-0.53)"/><path class="cls-21" d="M924.37,16.28H1024v99.59h-99.6Z"/><path class="cls-22" d="M986.62,61.93v-29H941v33.9l4.85-4.85h40.8Z"/><path class="cls-23" d="M990.77,70.23a4.17,4.17,0,0,0,4.15-4.15V28.73a4.16,4.16,0,0,0-4.15-4.15H936.82a4.16,4.16,0,0,0-4.15,4.15v58.1l16.6-16.6ZM941,66.78V32.88h45.65V61.93h-40.8Zm74.7-21.45a4.16,4.16,0,0,0-4.15-4.15h-8.3V78.53h-54v8.3A4.16,4.16,0,0,0,953.42,91h45.65l16.6,16.6Z"/><g class="cls-6"><rect x="1117.2" y="257.13" width="131.28" height="131.28" rx="18.36" transform="translate(-2.94 10.98) rotate(-0.53)"/></g><rect class="cls-3" x="1102.18" y="242.11" width="131.28" height="131.28" rx="18.36" transform="translate(-2.8 10.84) rotate(-0.53)"/><rect class="cls-22" x="1134.51" y="274.44" width="66.62" height="66.62"/><rect class="cls-21" x="1110.71" y="250.64" width="114.21" height="114.21"/><path class="cls-23" d="M1201.13,264.92h-66.62a9.54,9.54,0,0,0-9.52,9.52v66.62a9.55,9.55,0,0,0,9.52,9.52h66.62a9.56,9.56,0,0,0,9.52-9.52V274.44A9.55,9.55,0,0,0,1201.13,264.92Zm0,76.14h-66.62V274.44h66.62Z"/><rect class="cls-23" x="1144.02" y="307.75" width="9.52" height="23.79"/><rect class="cls-23" x="1182.09" y="283.95" width="9.52" height="47.59"/><rect class="cls-23" x="1163.06" y="317.27" width="9.52" height="14.28"/><rect class="cls-23" x="1163.06" y="298.23" width="9.52" height="9.52"/><g class="cls-6"><path d="M1153.92,597.84a60.91,60.91,0,0,1,0,49.88H923.55s-2.95-6-2.95-24.94,2.95-24.94,2.95-24.94Z"/></g><path class="cls-18" d="M1138.89,582.81a60.81,60.81,0,0,1,0,49.88H908.53s-3-6-3-24.93,3-25,3-25Z"/><path class="cls-24" d="M913.67,607.76c0,19,2.93,24.93,2.93,24.93h11.79s-2.94-6-2.94-24.93,2.94-25,2.94-25H916.6S913.67,588.81,913.67,607.76Z"/><g class="cls-6"><path d="M1165.32,647.68a60.91,60.91,0,0,1,0,49.88H912.13s-2.93-6-2.93-24.95,2.93-24.93,2.93-24.93Z"/></g><path class="cls-25" d="M1150.29,632.66a60.91,60.91,0,0,1,0,49.88H897.11s-2.94-6-2.94-25,2.94-24.92,2.94-24.92Z"/><path class="cls-26" d="M902.26,657.58c0,19,3,25,3,25H917s-2.94-6-2.94-25S917,632.66,917,632.66H905.21S902.26,638.63,902.26,657.58Z"/><path class="cls-26" d="M1137.27,657.58c0,19-3,25-3,25h-11.78s3-6,3-25-3-24.92-3-24.92h11.78S1137.27,638.63,1137.27,657.58Z"/><path class="cls-26" d="M1148.05,657.58c0,19-3,25-3,25h-5.9s3-6,3-25-3-24.92-3-24.92h5.9S1148.05,638.63,1148.05,657.58Z"/><path class="cls-24" d="M1144.24,607.59a62.62,62.62,0,0,0-5.19-24.6c-2.6,1.14-5.21,2.27-7.85,3.38-80.4,33.87-172.13,43.24-172.13,43.24-10.3,1-25.7,2.35-44.63,2.91h224.45A62.09,62.09,0,0,0,1144.24,607.59Z"/><path class="cls-27" d="M1155.63,657.36a63.83,63.83,0,0,0-5.18-24.84c-2.6,1.16-5.21,2.3-7.85,3.42-57.44,24.43-129.18,43.8-216.76,46.6h224.45A63.39,63.39,0,0,0,1155.63,657.36Z"/><rect class="cls-28" x="162.38" y="722.56" width="923.65" height="206.28"/><path class="cls-29" d="M1086,722.56h-29.15q8.34,103.14,16.69,206.28H1086Z"/><path class="cls-29" d="M162.38,722.56h29.14L174.84,928.84H162.38Z"/><rect class="cls-28" x="-74.84" y="882.08" width="425.08" height="49.36" rx="16.31" transform="translate(-769.05 1044.46) rotate(-90)"/><rect class="cls-28" x="898.17" y="882.08" width="425.08" height="49.36" rx="16.31" transform="translate(203.96 2017.47) rotate(-90)"/><rect class="cls-30" y="682.73" width="1249.02" height="39.83" rx="19.91"/><path class="cls-27" d="M1229.11,682.73H19.91A19.91,19.91,0,0,0,0,702.64H1249A19.91,19.91,0,0,0,1229.11,682.73Z"/><g class="cls-6"><path d="M523.88,859.64c-12.84-37.38-49.73-49.44-71.49-54.93-27.92-7.05-86-10.76-115.06,0-21.06,7.8-58.64,17.55-71.49,54.93s-13.87,238.19-10.45,253c1.06,4.55,3.33,16.27,12.92,18.58,45.91,11,212,11.22,253-.49,10.66-3,10.08-16.18,10.73-18.48C536.1,1097.61,536.73,897,523.88,859.64Z"/><path d="M515.62,876.44c-12.07-37.38-46.75-49.44-67.2-54.93-26.25-7-80.86-10.76-108.16,0-19.8,7.8-55.13,17.55-67.2,54.93S257.3,1116.55,265.42,1129c10.66,16.37,247.18,16.37,257.84,0C531.37,1116.55,527.7,913.81,515.62,876.44Z"/><rect x="292.07" y="1008.29" width="213.16" height="112.88" rx="15.04"/><path d="M273,971.78A270.38,270.38,0,0,1,288.47,892c3.75-10.5,8.36-21.1,16.5-28.72,7.47-7,17.25-10.87,26.82-14.48,14.76-5.57,29.82-10.91,45.53-12.35,10.79-1,21.65-.12,32.46.75,11.73.94,23.47,1.89,35.08,3.86,9.78,1.67,19.63,4.13,28.1,9.32,14.25,8.73,23.12,24.34,27.63,40.44s5.21,33,6.75,49.62,5.5,32.28,10.13,47.73c7.25-29.12.45-58.9-7.9-87.72-3.36-11.61-6.74-23.26-11.75-34.26-2.49-5.47-5.43-10.82-9.62-15.12-4.52-4.63-10.29-7.83-16.14-10.59-22.67-10.72-47.77-15.9-72.84-16.55-31.13-.81-63,5.53-89.49,21.85-7.82,4.81-15.24,10.57-20.54,18.08-6.57,9.31-9.45,20.69-11.74,31.86a410.65,410.65,0,0,0-6.89,47.73q-1,11.91-1.35,23.88c-.1,3.91-4.07,22.23-.13,24.3C271.54,987.45,272.82,976.5,273,971.78Z"/><rect x="287.76" y="1001.63" width="213.16" height="112.88" rx="15.04"/><path d="M287.76,1029.4s1.49,4.73,18.4,6.09,164.32,3.38,176.15,1.69,18.61-7.78,18.61-7.78v4.21s-1.7,5.26-11.17,9.31S320,1048,306.84,1046s-19.08-13.87-19.08-13.87Z"/><path d="M482.31,1036.14c-11.83,1.44-159.25-.29-176.15-1.43s-18.4-5.17-18.4-5.17v2.29a21.11,21.11,0,0,0,3,3.7c2.51,1.13,7.1,2.4,15.44,3,16.9,1.15,164.32,2.87,176.15,1.43,10.77-1.3,17.35-5.71,18.45-6.48.11-.22.16-.34.16-.34v-3.57S494.14,1034.71,482.31,1036.14Z"/><path class="cls-31" d="M312.92,1006.34A28,28,0,0,0,303,1009a12.56,12.56,0,0,0-6.57,7.58c-.88,3.33.33,7.28,3.3,9s7.46.53,8.63-2.71c.38-1.06.41-2.22.79-3.28,1.34-3.81,6.2-4.8,10.24-5a114.93,114.93,0,0,1,13.64.24c2.37.18,4.85.42,7-.54s3.8-3.62,2.75-5.75c-.75-1.54-2.55-2.24-4.22-2.62C331.07,1004.24,320.51,1005.49,312.92,1006.34Z"/><path class="cls-31" d="M355.67,1013.9a35.45,35.45,0,0,0,9.47.49,7.35,7.35,0,0,0,3.18-1,3.35,3.35,0,0,0,1.63-2.77,3.48,3.48,0,0,0-2.17-2.83,9.88,9.88,0,0,0-3.67-.63c-2.8-.1-9.92-1.44-12.39.35C347.85,1010.35,352.63,1013.45,355.67,1013.9Z"/><path d="M390,830.51l9.59,37.92a4.61,4.61,0,0,0,6.08,3.18l8.72-3.27a4.61,4.61,0,0,0,2.38-6.61l-19.92-34.65Z"/><polygon points="393.55 833.87 397.1 843.34 401.27 841.78 396.15 832.9 393.55 833.87"/><path d="M515.68,876.44c-12.08-37.38-46.75-49.44-67.2-54.93-26.26-7-80.86-10.76-108.16,0-19.8,7.8-55.13,17.55-67.21,54.93-5.29,16.39-9,64.61-10.75,114.62l6.72.55s9.6-99.35,22.2-120.44c17-28.37,65-42.25,108.2-40.57,43.61,1.69,78.77,2.47,95.68,35.84s20.43,121.83,22.31,121.71c6.88-.41,1.49-.1,8.85-.33C524.5,939,520.86,892.48,515.68,876.44Z"/><path class="cls-31" d="M397.19,848.31a2.38,2.38,0,0,0,.16,1.23c.86,2.68,2.3,5.15,3.2,7.81s1.27,5.53,2.55,8c.48.94,1.41,2,2.42,1.62a1.7,1.7,0,0,0,1-1.67,5,5,0,0,0-.58-2q-2.34-5.3-4.31-10.75a13.44,13.44,0,0,0-2.44-4.74A1.16,1.16,0,0,0,397.19,848.31Z"/><path d="M333.57,1065.21l-4.9-29.75-5.63-.18-3.38,30.11a3.47,3.47,0,0,0,3.45,3.86h7A3.49,3.49,0,0,0,333.57,1065.21Zm-9-18.2v-7.63h2.1l1.26,7.63Z"/><path class="cls-31" d="M322.73,1052.24l-.69,7.14a21.69,21.69,0,0,0,0,6.18c.12.61.38,1.3,1,1.46a1.18,1.18,0,0,0,.84-.12,2.37,2.37,0,0,0,1.14-1.54,7.64,7.64,0,0,0,.14-2q-.08-3.26-.14-6.51l-.09-4.07a2.25,2.25,0,0,0-.33-1.36C323.9,1050.62,322.8,1051.42,322.73,1052.24Z"/><path class="cls-32" d="M400.85,849.38c-31.32-1.21-62.1,7.15-82.74,22.39s-30.86,37.11-27.61,58.86c.69,4.61,2.93,10.08,9.27,11.79a19.07,19.07,0,0,0,7.18.32,30.74,30.74,0,0,0,19.77-10.92c4.4-5.2,7-11.1,11-16.49,8.06-11.06,21.72-19.89,38.2-24.73,10.19-3,22.31-5,27.58-11.71,2.31-2.93,2.94-6.43,3.13-9.86.24-4.56-.3-9.35-3.57-13.5a20,20,0,0,0-16.35-6.93Z"/><path d="M382.82,870.59l-6.49-39.44-7.62.81-4.32,38.87A4.6,4.6,0,0,0,369,876h9.32A4.61,4.61,0,0,0,382.82,870.59Zm-12-24.13V836.35h2.77l1.68,10.11Z"/><path class="cls-31" d="M368.45,853.4c-.3,3.16-.61,6.31-.91,9.46a28.45,28.45,0,0,0,0,8.19c.15.81.5,1.74,1.3,2a1.59,1.59,0,0,0,1.11-.16,3.15,3.15,0,0,0,1.51-2.05,9.42,9.42,0,0,0,.18-2.6l-.18-8.63-.12-5.41a2.81,2.81,0,0,0-.44-1.79C370,851.26,368.55,852.32,368.45,853.4Z"/></g><path class="cls-20" d="M508.86,859.64c-12.85-37.38-49.73-49.44-71.49-54.93-27.93-7.05-86-10.76-115.06,0-21.06,7.8-58.64,17.55-71.49,54.93s-13.87,238.19-10.45,253c1.06,4.55,3.33,16.27,12.91,18.58,45.91,11,212,11.22,253-.49,10.66-3,10.08-16.18,10.72-18.48C521.08,1097.61,521.71,897,508.86,859.64Z"/><path class="cls-18" d="M500.6,876.44c-12.08-37.38-46.75-49.44-67.21-54.93-26.25-7-80.85-10.76-108.15,0-19.8,7.8-55.13,17.55-67.21,54.93s-15.75,240.11-7.64,252.57c10.67,16.37,247.18,16.37,257.85,0C516.35,1116.55,512.67,913.81,500.6,876.44Z"/><rect class="cls-33" x="277.05" y="1008.29" width="213.16" height="112.88" rx="15.04"/><path class="cls-33" d="M258,971.78A270.06,270.06,0,0,1,273.45,892c3.74-10.5,8.36-21.1,16.5-28.72,7.46-7,17.25-10.87,26.81-14.48,14.76-5.57,29.82-10.91,45.53-12.35,10.79-1,21.66-.12,32.46.75,11.73.94,23.48,1.89,35.08,3.86,9.79,1.67,19.63,4.13,28.1,9.32,14.26,8.73,23.13,24.34,27.64,40.44s5.21,33,6.74,49.62,5.51,32.28,10.14,47.73c7.25-29.12.45-58.9-7.9-87.72-3.36-11.61-6.74-23.26-11.75-34.26-2.49-5.47-5.43-10.82-9.62-15.12-4.52-4.63-10.29-7.83-16.14-10.59-22.67-10.72-47.77-15.9-72.84-16.55-31.13-.81-63,5.53-89.49,21.85-7.82,4.81-15.25,10.57-20.54,18.08-6.58,9.31-9.46,20.69-11.74,31.86a412.83,412.83,0,0,0-6.9,47.73q-1,11.91-1.34,23.88c-.11,3.91-4.07,22.23-.13,24.3C256.51,987.45,257.8,976.5,258,971.78Z"/><rect class="cls-20" x="272.73" y="1001.63" width="213.16" height="112.88" rx="15.04"/><path class="cls-34" d="M272.73,1029.4s1.5,4.73,18.41,6.09,164.31,3.38,176.15,1.69,18.61-7.78,18.61-7.78v4.21s-1.71,5.26-11.18,9.31S305,1048,291.81,1046s-19.08-13.87-19.08-13.87Z"/><path class="cls-35" d="M467.29,1036.14c-11.84,1.44-159.25-.29-176.15-1.43s-18.41-5.17-18.41-5.17v2.29a21.73,21.73,0,0,0,3,3.7c2.51,1.13,7.1,2.4,15.45,3,16.9,1.15,164.31,2.87,176.15,1.43,10.77-1.3,17.35-5.71,18.44-6.48.12-.22.17-.34.17-.34v-3.57S479.12,1034.71,467.29,1036.14Z"/><path class="cls-36" d="M297.9,1006.34A28,28,0,0,0,288,1009a12.57,12.57,0,0,0-6.56,7.58c-.88,3.33.33,7.28,3.29,9s7.46.53,8.63-2.71c.39-1.06.42-2.22.79-3.28,1.35-3.81,6.21-4.8,10.24-5a115.13,115.13,0,0,1,13.65.24c2.37.18,4.85.42,7-.54s3.79-3.62,2.75-5.75c-.76-1.54-2.55-2.24-4.23-2.62C316,1004.24,305.48,1005.49,297.9,1006.34Z"/><path class="cls-36" d="M340.65,1013.9a35.43,35.43,0,0,0,9.47.49,7.35,7.35,0,0,0,3.18-1,3.32,3.32,0,0,0,1.62-2.77,3.45,3.45,0,0,0-2.16-2.83,9.88,9.88,0,0,0-3.67-.63c-2.8-.1-9.93-1.44-12.39.35C332.82,1010.35,337.61,1013.45,340.65,1013.9Z"/><path class="cls-37" d="M375,830.51l9.59,37.92a4.61,4.61,0,0,0,6.08,3.18l8.72-3.27a4.6,4.6,0,0,0,2.37-6.61l-19.92-34.65Z"/><polygon class="cls-34" points="378.53 833.87 382.07 843.34 386.25 841.78 381.12 832.9 378.53 833.87"/><path class="cls-18" d="M500.66,876.44c-12.08-37.38-46.75-49.44-67.21-54.93-26.25-7-80.85-10.76-108.15,0-19.81,7.8-55.13,17.55-67.21,54.93-5.3,16.39-9,64.61-10.76,114.62l6.73.55s9.59-99.35,22.2-120.44c16.95-28.37,65-42.25,108.19-40.57,43.62,1.69,78.77,2.47,95.68,35.84s20.44,121.83,22.32,121.71c6.87-.41,1.48-.1,8.84-.33C509.47,939,505.84,892.48,500.66,876.44Z"/><path class="cls-36" d="M382.16,848.31a2.49,2.49,0,0,0,.17,1.23c.86,2.68,2.29,5.15,3.2,7.81s1.27,5.53,2.55,8c.48.94,1.41,2,2.42,1.62a1.73,1.73,0,0,0,1-1.67,5.11,5.11,0,0,0-.58-2q-2.35-5.3-4.32-10.75a13.44,13.44,0,0,0-2.44-4.74A1.16,1.16,0,0,0,382.16,848.31Z"/><path class="cls-37" d="M318.54,1065.21l-4.9-29.75-5.62-.18-3.38,30.11a3.47,3.47,0,0,0,3.45,3.86h7A3.47,3.47,0,0,0,318.54,1065.21Zm-9-18.2v-7.63h2.09l1.27,7.63Z"/><path class="cls-36" d="M307.7,1052.24l-.69,7.14a22.06,22.06,0,0,0,0,6.18c.11.61.38,1.3,1,1.46a1.18,1.18,0,0,0,.84-.12,2.39,2.39,0,0,0,1.13-1.54,6.85,6.85,0,0,0,.14-2q-.06-3.26-.14-6.51l-.08-4.07a2.18,2.18,0,0,0-.34-1.36C308.87,1050.62,307.78,1051.42,307.7,1052.24Z"/><path class="cls-38" d="M385.83,849.38c-31.32-1.21-62.1,7.15-82.74,22.39s-30.86,37.11-27.61,58.86c.69,4.61,2.93,10.08,9.26,11.79a19.13,19.13,0,0,0,7.19.32,30.74,30.74,0,0,0,19.77-10.92c4.39-5.2,7-11.1,11-16.49,8.06-11.06,21.71-19.89,38.2-24.73,10.18-3,22.31-5,27.58-11.71,2.3-2.93,2.93-6.43,3.12-9.86.25-4.56-.29-9.35-3.56-13.5a20,20,0,0,0-16.36-6.93Z"/><path class="cls-37" d="M367.8,870.59l-6.5-39.44-7.61.81-4.33,38.87a4.62,4.62,0,0,0,4.58,5.12h9.31A4.61,4.61,0,0,0,367.8,870.59Zm-12-24.13V836.35h2.78l1.68,10.11Z"/><path class="cls-36" d="M353.43,853.4c-.31,3.16-.61,6.31-.92,9.46a28.81,28.81,0,0,0,0,8.19c.15.81.5,1.74,1.29,2a1.63,1.63,0,0,0,1.12-.16,3.11,3.11,0,0,0,1.5-2.05,9.05,9.05,0,0,0,.19-2.6q-.09-4.32-.19-8.63c0-1.8-.07-3.61-.11-5.41a2.94,2.94,0,0,0-.44-1.79C355,851.26,353.53,852.32,353.43,853.4Z"/></g></g></g></svg>