<svg xmlns="http://www.w3.org/2000/svg" xmlns:xlink="http://www.w3.org/1999/xlink" viewBox="0 0 1061 1061"><defs><style>.cls-1{isolation:isolate;}.cls-2{fill:none;}.cls-3{opacity:0.05;}.cls-3,.cls-6{mix-blend-mode:multiply;}.cls-4{fill:url(#linear-gradient);}.cls-5{opacity:0.01;}.cls-6{opacity:0.1;}.cls-7{fill:#077eb6;}.cls-8{fill:#fff;}.cls-9{fill:#21c3ee;}</style><linearGradient id="linear-gradient" x1="236.77" y1="710.13" x2="900.08" y2="710.13" gradientUnits="userSpaceOnUse"><stop offset="0" stop-color="#08c6f2"/><stop offset="1" stop-color="#1cacd9"/></linearGradient></defs><g class="cls-1"><g id="Layer_2" data-name="Layer 2"><g id="icon"><rect class="cls-2" width="1061" height="1061"/><g class="cls-3"><path d="M265.2,870.56H815.73L829,871q2.22-6.88,4.43-13.77l75.92-264.47a18.41,18.41,0,0,0-17.7-23.49H341.12a18.42,18.42,0,0,0-17.7,13.33L247.5,847.06A18.42,18.42,0,0,0,265.2,870.56Z"/></g><path class="cls-4" d="M255.2,860.56H805.73L819,861q2.22-6.88,4.43-13.77l75.92-264.47a18.41,18.41,0,0,0-17.7-23.49H331.12a18.42,18.42,0,0,0-17.7,13.33L237.5,837.06A18.42,18.42,0,0,0,255.2,860.56Z"/><path class="cls-5" d="M255.2,860.56H805.73L819,861q2.22-6.88,4.43-13.77l75.92-264.47a18.41,18.41,0,0,0-17.7-23.49H331.12a18.42,18.42,0,0,0-17.7,13.33L237.5,837.06A18.42,18.42,0,0,0,255.2,860.56Z"/><g class="cls-6"><path d="M934,240.41,420.62,209.22A656,656,0,0,0,318.8,382.42c-68.25,171.4-49.73,330.05-37.93,397.93l513.38,31.19C786.81,738.63,782.65,610,828,462.59A832,832,0,0,1,934,240.41Z"/></g><path class="cls-7" d="M924,230.41,410.62,199.22A656,656,0,0,0,308.8,372.42c-68.25,171.4-49.73,330.05-37.93,397.93l513.38,31.19C776.81,728.63,772.65,600,818,452.59A832,832,0,0,1,924,230.41Z"/><path class="cls-8" d="M806.3,293.26,460.35,270.52a13.86,13.86,0,0,1-10.75-21.33l.62-1a13.86,13.86,0,0,1,12.6-6.33l345.47,23.43a13.86,13.86,0,0,1,11.36,20.22l-.14.27A13.87,13.87,0,0,1,806.3,293.26Z"/><path class="cls-8" d="M775.1,352.4,432,330.81a14.74,14.74,0,0,1-12.2-21.42l.63-1.22a14.75,14.75,0,0,1,14.09-8L777.13,322.7a14.74,14.74,0,0,1,12.36,21l-.14.29A14.74,14.74,0,0,1,775.1,352.4Z"/><path class="cls-8" d="M386.57,369.33l-.35.69a15,15,0,0,0,12.42,21.82L543.76,401A15,15,0,0,0,559,390.69l.1-.29a15,15,0,0,0-13.27-19.69l-144.87-9.52A15,15,0,0,0,386.57,369.33Z"/><path class="cls-9" d="M819.3,860.56l-81.5-335a26.67,26.67,0,0,0-25.91-20.37H369.83l-7.92-32.52H136.15l8.15,33.52h.24l86.21,354.33Z"/><g class="cls-3"><circle cx="470.96" cy="709.35" r="80.87"/></g><circle class="cls-7" cx="460.96" cy="699.35" r="80.87"/><path class="cls-8" d="M480.82,666.26H441.11a6.64,6.64,0,0,0-6.62,6.62v52.94a6.64,6.64,0,0,0,6.62,6.62h39.71a6.64,6.64,0,0,0,6.61-6.62V672.88A6.64,6.64,0,0,0,480.82,666.26Zm-39.71,6.62h16.54v26.47l-8.27-5-8.27,5Z"/></g></g></g></svg>