<svg xmlns="http://www.w3.org/2000/svg" viewBox="0 0 1061 1061"><defs><style>.cls-1{isolation:isolate;}.cls-2{fill:none;}.cls-3{opacity:0.1;}.cls-3,.cls-6{mix-blend-mode:multiply;}.cls-4{fill:#21c3ee;}.cls-5{fill:#fff;}.cls-6{opacity:0.05;}.cls-7{fill:#077eb6;}</style></defs><g class="cls-1"><g id="Layer_2" data-name="Layer 2"><g id="icon"><rect class="cls-2" width="1061" height="1061"/><g class="cls-3"><rect x="277.92" y="194.06" width="525.65" height="691.9" rx="14.76"/></g><rect class="cls-4" x="267.92" y="184.06" width="525.65" height="691.9" rx="14.76"/><rect class="cls-5" x="324.31" y="443.95" width="263.88" height="45.4" rx="22.7"/><rect class="cls-5" x="324.31" y="516.6" width="336.65" height="45.4" rx="22.7"/><rect class="cls-5" x="321.71" y="639.16" width="418.07" height="158.58" rx="14.8"/><g class="cls-6"><circle cx="540.74" cy="310.62" r="69.35"/></g><circle class="cls-7" cx="530.74" cy="300.62" r="69.35"/><path class="cls-5" d="M553.25,274.89H539.81a9.61,9.61,0,0,0-18.14,0H508.23a6.45,6.45,0,0,0-6.43,6.43v45a6.45,6.45,0,0,0,6.43,6.43h45a6.45,6.45,0,0,0,6.43-6.43v-45A6.45,6.45,0,0,0,553.25,274.89Zm-22.51,7.05a2.34,2.34,0,1,1-2.33,2.34A2.34,2.34,0,0,1,530.74,281.94Zm4.67,32.69H519.07V310h16.34Zm7-9.34H519.07v-4.67h23.34Zm0-9.34H519.07v-4.67h23.34Z"/></g></g></g></svg>