<svg xmlns="http://www.w3.org/2000/svg" viewBox="0 0 1061 1061"><defs><style>.cls-1{isolation:isolate;}.cls-2{fill:none;}.cls-3{opacity:0.1;}.cls-3,.cls-6{mix-blend-mode:multiply;}.cls-4{fill:#21c3ee;}.cls-5{fill:#fff;}.cls-6{opacity:0.05;}.cls-7{fill:#077eb6;}</style></defs><g class="cls-1"><g id="Layer_2" data-name="Layer 2"><g id="icon"><rect class="cls-2" width="1061" height="1061"/><g class="cls-3"><rect x="270" y="194.26" width="607" height="691.9" rx="14.76"/></g><rect class="cls-4" x="260" y="184.26" width="607" height="691.9" rx="14.76"/><rect class="cls-5" x="371.35" y="248.95" width="325.85" height="51.55" rx="25.78"/><rect class="cls-5" x="371.35" y="331.45" width="415.72" height="51.55" rx="25.78"/><g class="cls-6"><circle cx="272.78" cy="318.62" r="69.35"/></g><circle class="cls-7" cx="262.78" cy="308.62" r="69.35"/><path class="cls-5" d="M285.29,282.89H271.85a9.61,9.61,0,0,0-18.14,0H240.27a6.45,6.45,0,0,0-6.43,6.43v45a6.45,6.45,0,0,0,6.43,6.43h45a6.46,6.46,0,0,0,6.44-6.43v-45A6.46,6.46,0,0,0,285.29,282.89Zm-22.51,7.05a2.34,2.34,0,1,1-2.33,2.34A2.34,2.34,0,0,1,262.78,289.94Zm4.67,32.69H251.11V318h16.34Zm7-9.34H251.11v-4.67h23.35Zm0-9.34H251.11v-4.67h23.35Z"/><rect class="cls-5" x="396.35" y="518.72" width="418.07" height="43.28" rx="21.64"/><circle class="cls-7" cx="357" cy="540" r="25"/><rect class="cls-5" x="396.35" y="598.72" width="386.65" height="43.28" rx="21.64"/><circle class="cls-7" cx="357" cy="620" r="25"/><rect class="cls-5" x="396.35" y="678.72" width="319.65" height="43.28" rx="21.64"/><circle class="cls-7" cx="357" cy="700" r="25"/></g></g></g></svg>