<svg xmlns="http://www.w3.org/2000/svg" viewBox="0 0 1061 1061"><defs><style>.cls-1{isolation:isolate;}.cls-2{fill:none;}.cls-3{opacity:0.1;}.cls-3,.cls-7{mix-blend-mode:multiply;}.cls-4{fill:#077eb6;}.cls-5{fill:#fff;}.cls-6{fill:#21c3ee;}.cls-7{opacity:0.05;}</style></defs><g class="cls-1"><g id="Layer_2" data-name="Layer 2"><g id="icon"><g id="reminder"><rect class="cls-2" width="1061" height="1061"/><g class="cls-3"><rect x="289" y="333.55" width="503" height="172.98" rx="14.76"/></g><rect class="cls-4" x="279" y="323.55" width="503" height="172.98" rx="14.76"/><rect class="cls-5" x="432.66" y="381.09" width="184.53" height="22.39" rx="11.19"/><rect class="cls-5" x="432.66" y="416.18" width="286.36" height="22.39" rx="11.19"/><circle class="cls-5" cx="363.52" cy="409.51" r="39.78"/><g class="cls-3"><rect x="289" y="556.46" width="503" height="172.98" rx="14.76"/></g><rect class="cls-6" x="279" y="546.46" width="503" height="172.98" rx="14.76"/><rect class="cls-5" x="432.66" y="604" width="184.53" height="22.39" rx="11.19"/><rect class="cls-5" x="432.66" y="639.09" width="286.36" height="22.39" rx="11.19"/><circle class="cls-5" cx="363.52" cy="632.42" r="39.78"/><g class="cls-3"><rect x="289" y="772.74" width="503" height="172.98" rx="14.76"/></g><rect class="cls-6" x="279" y="762.74" width="503" height="172.98" rx="14.76"/><rect class="cls-5" x="432.66" y="820.28" width="184.53" height="22.39" rx="11.19"/><rect class="cls-5" x="432.66" y="855.37" width="286.36" height="22.39" rx="11.19"/><circle class="cls-5" cx="363.52" cy="848.7" r="39.78"/><g class="cls-7"><circle cx="540.78" cy="206.62" r="69.35"/></g><circle class="cls-4" cx="530.78" cy="196.62" r="69.35"/><path class="cls-5" d="M514.93,168.07,509.86,163a37,37,0,0,0-14.63,27.86h7.1A30,30,0,0,1,514.93,168.07Zm44,22.79H566A37.21,37.21,0,0,0,551.38,163l-5,5.07A30.14,30.14,0,0,1,558.9,190.86Zm-7,1.77c0-10.89-5.82-20-16-22.43v-2.41a5.33,5.33,0,0,0-10.65,0v2.41c-10.18,2.42-16,11.5-16,22.43v17.75l-7.09,7.1V221H559v-3.54l-7.1-7.1Zm-21.29,39a6.06,6.06,0,0,0,1.42-.14,7,7,0,0,0,5.64-7h-14.2A7.16,7.16,0,0,0,530.62,231.67Z"/></g></g></g></g></svg>