<svg xmlns="http://www.w3.org/2000/svg" viewBox="0 0 1061 1061"><defs><style>.cls-1{isolation:isolate;}.cls-2{fill:none;}.cls-3{opacity:0.1;}.cls-3,.cls-6{mix-blend-mode:multiply;}.cls-4{fill:#21c3ee;}.cls-5{fill:#fff;}.cls-6{opacity:0.05;}.cls-7{fill:#077eb6;}</style></defs><g class="cls-1"><g id="icon"><rect class="cls-2" width="1061" height="1061"/><g class="cls-3"><rect x="247.25" y="263.86" width="594.38" height="621.82" rx="22.68"/></g><rect class="cls-4" x="237.25" y="253.86" width="594.38" height="621.82" rx="22.68"/><rect class="cls-5" x="301.16" y="770.82" width="486.44" height="55.39" rx="27.69"/><g class="cls-6"><circle cx="535.41" cy="263.86" r="69.35"/></g><circle class="cls-7" cx="525.41" cy="253.86" r="69.35"/><path class="cls-5" d="M553.93,242.28h-5.79v26H510.51v5.79a2.9,2.9,0,0,0,2.9,2.89h31.83l11.58,11.58V245.17A2.9,2.9,0,0,0,553.93,242.28Zm-11.58,17.37v-26a2.91,2.91,0,0,0-2.9-2.9H501.83a2.91,2.91,0,0,0-2.89,2.9v40.52l11.57-11.58h28.94A2.9,2.9,0,0,0,542.35,259.65Z"/><g class="cls-6"><path d="M601.25,369.41H186a18.16,18.16,0,0,0-18.16,18.17V505A18.16,18.16,0,0,0,186,523.2h7v66.26l68.72-66.26H601.25A18.16,18.16,0,0,0,619.42,505V387.58A18.16,18.16,0,0,0,601.25,369.41Z"/></g><path class="cls-7" d="M611.25,359.41H196a18.16,18.16,0,0,0-18.16,18.17V495A18.16,18.16,0,0,0,196,513.2h7v66.26l68.72-66.26H611.25A18.16,18.16,0,0,0,629.42,495V377.58A18.16,18.16,0,0,0,611.25,359.41Z"/><circle class="cls-5" cx="237.04" cy="422.82" r="38.23"/><rect class="cls-5" x="300.72" y="396.33" width="155.74" height="18.89" rx="9.45"/><rect class="cls-5" x="300.72" y="425.94" width="241.69" height="18.89" rx="9.45"/><g class="cls-6"><path d="M388.11,561.6H871.4a21.15,21.15,0,0,1,21.14,21.14V719.46A21.15,21.15,0,0,1,871.4,740.6h-8.14v77.12l-80-77.12H388.11A21.15,21.15,0,0,1,367,719.46V582.74A21.15,21.15,0,0,1,388.11,561.6Z"/></g><path class="cls-7" d="M378.11,551.6H861.4a21.15,21.15,0,0,1,21.14,21.14V709.46A21.15,21.15,0,0,1,861.4,730.6h-8.14v77.12l-80-77.12H378.11A21.15,21.15,0,0,1,357,709.46V572.74A21.15,21.15,0,0,1,378.11,551.6Z"/><circle class="cls-5" cx="813.78" cy="637.74" r="38.23"/><rect class="cls-5" x="585.36" y="598.67" width="155.74" height="18.89" rx="9.45" transform="translate(1326.46 1216.24) rotate(-180)"/><rect class="cls-5" x="499.41" y="628.29" width="241.69" height="18.89" rx="9.45" transform="translate(1240.51 1275.47) rotate(180)"/><rect class="cls-5" x="439.76" y="663.39" width="301.34" height="18.89" rx="9.45" transform="translate(1180.86 1345.68) rotate(-180)"/></g></g></svg>