<svg xmlns="http://www.w3.org/2000/svg" viewBox="0 0 1061 1061"><defs><style>.cls-1{isolation:isolate;}.cls-2{fill:none;}.cls-3{opacity:0.1;}.cls-10,.cls-3{mix-blend-mode:multiply;}.cls-4{fill:#077eb6;}.cls-5{fill:#21c3ee;}.cls-11,.cls-6{fill:#fff;}.cls-6{opacity:0.61;}.cls-7{fill:#155999;}.cls-8{fill:#e6e6e6;}.cls-9{fill:#00dbff;opacity:0.3;}.cls-10{opacity:0.05;}</style></defs><g class="cls-1"><g id="Layer_2" data-name="Layer 2"><g id="icon"><rect class="cls-2" width="1061" height="1061"/><g class="cls-3"><path d="M713,156.47a8.24,8.24,0,0,0-8-8.47H376a8.24,8.24,0,0,0-8,8.47V418H713Z"/></g><path class="cls-4" d="M703,146.47a8.24,8.24,0,0,0-8-8.47H366a8.24,8.24,0,0,0-8,8.47V408H703Z"/><g class="cls-3"><path d="M808,403H713v15H368V403H273a93,93,0,0,0-93,93V728a33,33,0,0,0,33,33H868a33,33,0,0,0,33-33V496A93,93,0,0,0,808,403Z"/></g><path class="cls-5" d="M798,393H703v15H358V393H263a93,93,0,0,0-93,93V718a33,33,0,0,0,33,33H858a33,33,0,0,0,33-33V486A93,93,0,0,0,798,393Z"/><path class="cls-6" d="M277,678H784a20,20,0,0,1,20,20v53a0,0,0,0,1,0,0H257a0,0,0,0,1,0,0V698A20,20,0,0,1,277,678Z"/><g class="cls-3"><polygon points="838 927 233 927 282 771 788 771 838 927"/><path d="M838,884H233q24.5-87,49-174H788Q813,797,838,884Z"/><rect x="233" y="891" width="576" height="36"/><path d="M838,926H233v7H838a4.26,4.26,0,0,0,2-3A4.16,4.16,0,0,0,838,926Z"/><path d="M838,884H233v7H838a4.26,4.26,0,0,0,2-3A4.16,4.16,0,0,0,838,884Z"/><rect x="233" y="884" width="15" height="49"/></g><polygon class="cls-7" points="833 917 228 917 277 761 783 761 833 917"/><path class="cls-4" d="M833,874H228q24.5-87,49-174H783Q808,787,833,874Z"/><rect class="cls-8" x="228" y="881" width="576" height="36"/><path class="cls-7" d="M833,916H228v7H833a4.26,4.26,0,0,0,2-3A4.16,4.16,0,0,0,833,916Z"/><path class="cls-7" d="M833,874H228v7H833a4.26,4.26,0,0,0,2-3A4.16,4.16,0,0,0,833,874Z"/><rect class="cls-7" x="228" y="874" width="15" height="49"/><rect class="cls-9" x="170" y="483.5" width="721" height="5"/><g class="cls-10"><circle cx="540.02" cy="593.09" r="69.35"/></g><circle class="cls-4" cx="530.02" cy="583.09" r="69.35"/><path class="cls-11" d="M552.54,569.82h-45a9.63,9.63,0,0,0-9.65,9.64v19.3h12.86v12.86h38.59V598.76h12.87v-19.3A9.63,9.63,0,0,0,552.54,569.82Zm-9.65,35.37H517.16V589.11h25.73Zm9.65-22.51a3.22,3.22,0,1,1,3.21-3.22A3.23,3.23,0,0,1,552.54,582.68Zm-3.22-28.94H510.73V566.6h38.59Z"/><path class="cls-11" d="M693.64,808.8H366.79q-2.58,11.61-5.15,23.2H699.36Q696.5,820.41,693.64,808.8Z"/><path class="cls-11" d="M657.56,749H403l-7.2,36.16H665.24Z"/><circle class="cls-11" cx="530" cy="188" r="31"/><rect class="cls-11" x="461" y="231" width="134" height="22" rx="11"/><rect class="cls-11" x="434" y="291.83" width="188" height="17.68" rx="8.84"/><rect class="cls-11" x="434" y="323.16" width="188" height="17.68" rx="8.84"/><rect class="cls-11" x="434" y="354.5" width="188" height="17.68" rx="8.84"/></g></g></g></svg>