<svg xmlns="http://www.w3.org/2000/svg" viewBox="0 0 476.23 660"><defs><style>.cls-1{fill:#3d2111;}.cls-2{fill:#e4e7e7;}.cls-3{fill:#f28024;}.cls-4{fill:#cac9c9;opacity:0.3;}.cls-5{fill:#fac1a0;}.cls-6{fill:#ec926e;}.cls-7,.cls-9{fill:#f68f31;}.cls-7{opacity:0.32;}.cls-8{fill:none;stroke:#e07225;stroke-miterlimit:10;stroke-width:7px;}.cls-10,.cls-11{fill:#f9c034;}.cls-10{opacity:0.4;}</style></defs><g id="Layer_2" data-name="Layer 2"><g id="device"><path class="cls-1" d="M356.76,289.8l-241.29-3.07C100.4,274,73.52,247,65.2,205.46,50.92,134.22,102.46,75.79,115.84,60.24a189,189,0,0,1,37.49-32.92c11.23-7.53,57.78-36.13,114.43-24.63,26.76,5.43,44.9,17.65,55.68,25.07,43,29.61,105.36,99.05,87.58,177.7C400.92,250.11,371.43,277.9,356.76,289.8Z"/><path class="cls-1" d="M363.72,474.21H113.13A674.52,674.52,0,0,1,63.44,179.33H414.49a639,639,0,0,1-5.4,135A639.54,639.54,0,0,1,363.72,474.21Z"/><path class="cls-2" d="M150,414.8H326.23a150,150,0,0,1,150,150v94.71a0,0,0,0,1,0,0H0a0,0,0,0,1,0,0V564.8A150,150,0,0,1,150,414.8Z"/><path class="cls-3" d="M399.18,533.84c-.28-39.57-2.57-76.29-6-109.71A145.81,145.81,0,0,0,326.39,408H150a145.81,145.81,0,0,0-66.79,16.13c-3.43,33.42-5.72,70.14-6,109.71a1154.54,1154.54,0,0,0,6,126.16h310A1157,1157,0,0,0,399.18,533.84Z"/><path class="cls-4" d="M89.21,504a127.26,127.26,0,0,0-10.68-13.07q-1.11,22.43-1.32,46.31a1093.19,1093.19,0,0,0,6,122.76h26q-.52-4.49-1-9a835.39,835.39,0,0,1-4-119C98.35,518.57,92.61,508.79,89.21,504Z"/><path class="cls-4" d="M387.18,504a126,126,0,0,1,10.68-13.07q1.11,22.43,1.32,46.31a1095.57,1095.57,0,0,1-6,122.76h-26q.52-4.49,1-9a835.39,835.39,0,0,0,4-119C378,518.57,383.78,508.79,387.18,504Z"/><rect class="cls-5" x="168.8" y="343.51" width="137.41" height="77.49"/><path class="cls-6" d="M248.9,391.94c20.21-10.6,30.1-18.1,34.17-21.61a113.28,113.28,0,0,0,22.5-26h0l-31-.81H168.8v67.85l11.87,5.6A285.91,285.91,0,0,0,248.9,391.94Z"/><path class="cls-4" d="M139.29,415.88,201.21,480l33-59c-7.37-5-30.64-19.31-61.43-15.94A88.27,88.27,0,0,0,139.29,415.88Z"/><path class="cls-4" d="M332.32,415.88,270.21,479l-32-58c7.2-4.91,30.15-19.19,60.62-15.94A87.24,87.24,0,0,1,332.32,415.88Z"/><path class="cls-2" d="M270.75,471l61.57-55.38-23.76-42.32L238.34,421q6.45,8.11,13,17.58A314.3,314.3,0,0,1,270.75,471Z"/><path class="cls-2" d="M204.94,471l-62.8-55.38,24.08-42.32L237.34,421c-4.61,5.59-9.34,11.8-14,18.66A258.84,258.84,0,0,0,204.94,471Z"/><path class="cls-5" d="M94.71,181.49a182.54,182.54,0,0,0-.07,36.36c1.27,12.85,6.25,57.39,39.62,97.49,38.35,46.08,88.67,55.63,102.55,57.78h0A168.11,168.11,0,0,0,333,321.47c38.4-41.44,44.61-89.26,46-103.62V181.49a216,216,0,0,1-71.42-10.8,216.28,216.28,0,0,1-70.22-38.89,221.52,221.52,0,0,1-71.29,38.89,221.14,221.14,0,0,1-71.18,10.8Z"/><path class="cls-6" d="M198.46,170.69a207.22,207.22,0,0,0,38.88-18.37,222.28,222.28,0,0,0,41,18.37,225.71,225.71,0,0,0,84.25,10.8l0-.34a215.64,215.64,0,0,1-55.05-10.46,216.28,216.28,0,0,1-70.22-38.89,221.52,221.52,0,0,1-71.29,38.89,220.9,220.9,0,0,1-57.16,10.53c0,.09-.06.18-.08.27A212.88,212.88,0,0,0,198.46,170.69Z"/><rect class="cls-7" x="263.78" y="296.35" width="72.19" height="22.79" rx="11.39"/><path class="cls-8" d="M306.57,304.24l111.14.26q.26-36.22.5-72.45"/><rect class="cls-9" x="262.28" y="292.85" width="72.19" height="22.79" rx="11.39"/><path class="cls-9" d="M414.32,246.14h-1.47v-84.5h1.47a29.89,29.89,0,0,1,29.89,29.88v24.74A29.89,29.89,0,0,1,414.32,246.14Z"/><path class="cls-9" d="M63.09,246.14h1.48v-84.5H63.09a29.88,29.88,0,0,0-29.88,29.88v24.74A29.88,29.88,0,0,0,63.09,246.14Z"/><rect class="cls-10" x="255.21" y="518" width="104" height="28" rx="3.19"/><rect class="cls-11" x="255.21" y="512" width="104" height="28" rx="3.19"/></g></g></svg>