<svg xmlns="http://www.w3.org/2000/svg" viewBox="0 0 471.45 657.64"><defs><style>.cls-1{fill:#3d2111;}.cls-2{fill:#e4e7e7;}.cls-3{fill:#4d4c4e;}.cls-4{fill:#fac1a0;}.cls-5{fill:#ec926e;}.cls-6,.cls-7{fill:#cac9c9;}.cls-6{opacity:0.08;}.cls-7{opacity:0.3;}.cls-8{fill:none;stroke:#4d4c4e;stroke-miterlimit:10;stroke-width:4px;}</style></defs><g id="Layer_2" data-name="Layer 2"><g id="device"><path class="cls-1" d="M119.27,291.15l238.87-3c14.92-12.57,41.54-39.34,49.78-80.46C422.05,137.13,371,79.29,357.78,63.89A187.51,187.51,0,0,0,320.66,31.3C307,22.13,251.26-15.25,207.38,6.92A67.62,67.62,0,0,0,187.8,22.09a120.92,120.92,0,0,0-35.54,9.65C94.44,57.55,49,134.55,65.56,207.65,75.55,251.86,104.75,279.37,119.27,291.15Z"/><path class="cls-2" d="M150,414.9H321.45a150,150,0,0,1,150,150v92.26a0,0,0,0,1,0,0H0a0,0,0,0,1,0,0V564.9a150,150,0,0,1,150-150Z"/><path class="cls-3" d="M150,414.9A150,150,0,0,0,.45,553.18v104h155V414.9Z"/><path class="cls-3" d="M321.45,414.9h-5V657.16h155V564.9A150,150,0,0,0,321.45,414.9Z"/><rect class="cls-4" x="167.5" y="344.33" width="135.95" height="89.82" transform="translate(470.96 778.47) rotate(180)"/><path class="cls-5" d="M247.12,392.27c20.09-10.49,29.92-17.93,34-21.39a112.24,112.24,0,0,0,22.37-25.76h0l-30.85-.79H167.5v67.16L179.3,417A285.41,285.41,0,0,0,247.12,392.27Z"/><path class="cls-6" d="M109,566.65a194.67,194.67,0,0,0-8.55-35.88,180.26,180.26,0,0,0-16-34.6V657.64H109v-91Z"/><path class="cls-6" d="M365.66,566.65a194.79,194.79,0,0,1,8.56-35.88,179.65,179.65,0,0,1,16-34.6V657.64h-24.6v-91Z"/><path class="cls-7" d="M141.89,416l72.72,74.85,12.83-38.64c-8.06-27.14-29.33-45.81-52.4-46.92C159.32,404.5,147.2,412.1,141.89,416Z"/><path class="cls-7" d="M329,416l-72.72,74.85-12.83-38.64c8.07-27.14,29.33-45.81,52.4-46.92C311.6,404.5,323.72,412.1,329,416Z"/><path class="cls-7" d="M256.59,486.55,278,657.64H249.1q2.68-84.48,5.35-168.95Z"/><path class="cls-3" d="M270.42,657.64h-77Q202,563.83,210.54,470c.8-1.38,8.28-13.9,21.38-13.9,1.33,0,13.53.28,21.39,13.9Q261.86,563.83,270.42,657.64Z"/><path class="cls-6" d="M236.27,512.29q8.35-21,17.24-40.12c-.07-.71-.14-1.43-.2-2.15-7.86-13.62-20.06-13.9-21.39-13.9-13.1,0-20.58,12.52-21.38,13.9Q202,563.7,193.45,657.38c0,.09,0,.17,0,.26h.13A821,821,0,0,1,236.27,512.29Z"/><path class="cls-3" d="M237.34,479.06H226.65a28.87,28.87,0,0,1,0-57.74h10.69a28.87,28.87,0,0,1,0,57.74Z"/><path class="cls-2" d="M268.08,470.51,329,415.68l-23.53-41.9L236,421c4.24,5.36,8.55,11.15,12.83,17.4A312.41,312.41,0,0,1,268.08,470.51Z"/><path class="cls-2" d="M203.92,470.51l-62.17-54.83,23.83-41.9L236,421c-4.57,5.53-9.26,11.68-13.91,18.47A256,256,0,0,0,203.92,470.51Z"/><path class="cls-4" d="M173.59,118.18c23.14,20.83,73,59.31,143.91,66.76a233.33,233.33,0,0,0,56.78-1,181.12,181.12,0,0,1,.07,36c-1.26,12.72-6.19,56.82-39.23,96.52-38,45.61-87.77,55.07-101.52,57.19h0a166.37,166.37,0,0,1-95.25-51.13c-38-41-44.16-88.37-45.49-102.58V173.23c9.67-.62,38-3.78,61.15-26.72A94.8,94.8,0,0,0,173.59,118.18Z"/><path class="cls-5" d="M154,146.51a94.8,94.8,0,0,0,19.58-28.33c19.7,17.73,58.78,48.24,113.7,61.52a200.21,200.21,0,0,1-65.73-16,203.89,203.89,0,0,1-48-29.33,92.41,92.41,0,0,1-27.41,31.35c-20.36,14.55-41.57,16.59-53.32,16.47v-9C102.53,172.61,130.81,169.45,154,146.51Z"/><rect class="cls-8" x="133.05" y="201.15" width="89.68" height="47" rx="6.47"/><rect class="cls-8" x="249.37" y="201.15" width="89.68" height="47" rx="6.47"/><path class="cls-8" d="M221.84,223.15a47.94,47.94,0,0,1,27.53,0"/><path class="cls-7" d="M161.45,657.14h-6v-223l6,6Z"/></g></g></svg>