<svg xmlns="http://www.w3.org/2000/svg" viewBox="0 0 473.45 660.43"><defs><style>.cls-1{fill:#3d2111;}.cls-2{fill:#e4e7e7;}.cls-3{fill:#fac1a0;}.cls-4{fill:#ec926e;}.cls-5{fill:#cac9c9;opacity:0.3;}.cls-6{fill:#155999;}.cls-7{fill:#0d4f7c;}.cls-8{fill:#f9c034;}</style></defs><g id="Layer_2" data-name="Layer 2"><g id="device"><path class="cls-1" d="M164.49,247.3a173.52,173.52,0,0,0-53.94,37.57c-48,49.43-52.11,113.29-52.65,131.91,57.68-16.09,94.16-43.83,114.59-62.84,21.68-20.17,46.26-43,40.83-67.6C207.41,259.59,169.9,248.79,164.49,247.3Z"/><path class="cls-1" d="M309,247.3A173.52,173.52,0,0,1,363,284.87c48,49.43,52.1,113.29,52.65,131.91C357.94,400.69,321.46,373,301,353.94c-21.68-20.17-46.26-43-40.83-67.6C266.1,259.59,303.61,248.79,309,247.3Z"/><path class="cls-1" d="M358.36,292.38l-239.88-3c-15-12.63-41.71-39.51-50-80.81-14.19-70.82,37-128.9,50.35-144.37a187.61,187.61,0,0,1,37.27-32.72C169.85,22.23,225.82-15.32,269.88,7a67.59,67.59,0,0,1,19.66,15.24,121.21,121.21,0,0,1,35.7,9.69C383.3,57.8,428.91,135.12,412.31,208.53,402.27,252.93,373,280.56,358.36,292.38Z"/><path class="cls-2" d="M150,416.66H323.45a150,150,0,0,1,150,150v93.28a0,0,0,0,1,0,0H0a0,0,0,0,1,0,0V566.66A150,150,0,0,1,150,416.66Z"/><rect class="cls-3" x="169.17" y="345.79" width="135.24" height="90.2"/><path class="cls-4" d="M248.39,393.93c20-10.53,29.78-18,33.8-21.48a112.55,112.55,0,0,0,22.26-25.86h0l-30.7-.8H169.17v67.45l11.74,5.57A281.79,281.79,0,0,0,248.39,393.93Z"/><path class="cls-5" d="M109.48,569.06a195,195,0,0,0-8.59-36,180.28,180.28,0,0,0-16.1-34.74V660.43h24.69V569.06Z"/><path class="cls-5" d="M367.21,569.06a195.81,195.81,0,0,1,8.59-36,180.84,180.84,0,0,1,16.11-34.74V660.43h-24.7V569.06Z"/><path class="cls-5" d="M142.48,417.74l73,75.17,12.89-38.81c-8.1-27.26-29.46-46-52.62-47.12C160,406.21,147.81,413.85,142.48,417.74Z"/><path class="cls-5" d="M330.41,417.74l-73,75.17L244.5,454.1c8.1-27.26,29.45-46,52.62-47.12C312.9,406.21,325.08,413.85,330.41,417.74Z"/><path class="cls-5" d="M257.68,488.61l21.48,171.82h-29l5.37-169.67Z"/><path class="cls-6" d="M275.57,660.43H198.25q8.59-94.21,17.18-188.42c.8-1.39,8.32-13.95,21.48-13.95,1.33,0,13.58.28,21.47,13.95Z"/><path class="cls-7" d="M241.28,514.47c5.58-14.05,11.38-27.48,17.3-40.29-.06-.72-.13-1.45-.2-2.17-7.89-13.67-20.14-13.95-21.47-13.95-13.16,0-20.68,12.56-21.48,13.95L198.27,660.17c0,.09,0,.17,0,.26h.13A823.37,823.37,0,0,1,241.28,514.47Z"/><path class="cls-6" d="M242.35,481.09H231.61a29,29,0,0,1,0-58h10.74a29,29,0,0,1,0,58Z"/><path class="cls-2" d="M269.2,472.5l61.21-55.06-23.63-42.07L237,422.81c4.26,5.38,8.59,11.2,12.89,17.48A313.19,313.19,0,0,1,269.2,472.5Z"/><path class="cls-2" d="M204.76,472.5l-62.43-55.06,23.94-42.07L237,422.81c-4.59,5.56-9.3,11.73-14,18.55A259.93,259.93,0,0,0,204.76,472.5Z"/><rect class="cls-8" x="283.45" y="518.68" width="60.14" height="60.14" rx="6.38"/><path class="cls-3" d="M299.38,118.69c-23.24,20.91-73.34,59.55-144.52,67a234.75,234.75,0,0,1-57-1,181.87,181.87,0,0,0-.07,36.14c1.26,12.78,6.22,57.06,39.39,96.93,38.12,45.81,88.15,55.3,102,57.44h0a167.17,167.17,0,0,0,95.66-51.35c38.18-41.2,44.35-88.74,45.68-103V174c-9.71-.63-38.11-3.8-61.41-26.84A95.12,95.12,0,0,1,299.38,118.69Z"/><path class="cls-4" d="M319,147.13a95.12,95.12,0,0,1-19.66-28.44c-19.78,17.8-59,48.43-114.18,61.77a201,201,0,0,0,66-16.06,204.85,204.85,0,0,0,48.18-29.46,92.89,92.89,0,0,0,27.52,31.49c20.45,14.6,41.75,16.65,53.55,16.54v-9C370.74,173.34,342.34,170.17,319,147.13Z"/></g></g></svg>