<svg xmlns="http://www.w3.org/2000/svg" xmlns:xlink="http://www.w3.org/1999/xlink" viewBox="0 0 902.85 965.39"><defs><style>.cls-1,.cls-15,.cls-17,.cls-19{fill:none;}.cls-2{isolation:isolate;}.cls-3{fill:url(#linear-gradient);}.cls-4{clip-path:url(#clip-path);}.cls-5{opacity:0.05;mix-blend-mode:multiply;}.cls-14,.cls-6{fill:#010101;}.cls-7{fill:#e6e6e5;}.cls-8{fill:#ccc;opacity:0.75;}.cls-9{fill:url(#linear-gradient-2);}.cls-10{fill:#22add5;}.cls-11{fill:#ffcf34;}.cls-12{fill:#f8993a;}.cls-13{fill:#d2eef7;}.cls-14,.cls-16,.cls-19{fill-rule:evenodd;}.cls-15{stroke:#010101;}.cls-15,.cls-17,.cls-19{stroke-miterlimit:10;}.cls-15,.cls-17{stroke-width:4px;opacity:0.7;mix-blend-mode:darken;}.cls-16{fill:#7ed3f1;}.cls-17{stroke:#1cabd7;}.cls-18{fill:#1facd8;}.cls-19{stroke:#6ecff0;stroke-width:6px;}</style><linearGradient id="linear-gradient" x1="125.85" y1="412.5" x2="902.85" y2="412.5" gradientUnits="userSpaceOnUse"><stop offset="0" stop-color="#25c3ee"/><stop offset="1" stop-color="#1facd8"/></linearGradient><clipPath id="clip-path" transform="translate(125.85)"><rect class="cls-1" width="777" height="825" transform="translate(777 825) rotate(180)"/></clipPath><linearGradient id="linear-gradient-2" x1="-2029.25" y1="706.63" x2="-1244.28" y2="706.63" gradientTransform="matrix(-1, 0, 0, 1, -1370.13, 0)" xlink:href="#linear-gradient"/></defs><g class="cls-2"><g id="Layer_2" data-name="Layer 2"><g id="Layer_1-2" data-name="Layer 1"><rect class="cls-3" x="125.85" width="777" height="825"/><g class="cls-4"><g class="cls-5"><path class="cls-6" d="M699.51,728.09,544.6,653.49a219.25,219.25,0,0,0-53.42,40.71C448.38,738.6,434,790,429.1,812.53L584,887.14a296.46,296.46,0,0,1,54.58-103.72A278.06,278.06,0,0,1,699.51,728.09Z" transform="translate(125.85)"/></g><path class="cls-7" d="M710.51,706.09,555.6,631.49a219.25,219.25,0,0,0-53.42,40.71C459.38,716.6,445,768,440.1,790.53L595,865.14a296.46,296.46,0,0,1,54.58-103.72A278.06,278.06,0,0,1,710.51,706.09Z" transform="translate(125.85)"/><path class="cls-8" d="M684.58,716.14l-139.84-68.2,11-7.73L694.13,708Z" transform="translate(125.85)"/><path class="cls-8" d="M663.9,733.91,525,666.64l10.43-9,138.17,67.39Z" transform="translate(125.85)"/><path class="cls-8" d="M513.14,675.6l-10.44,9,66.41,32.16,8.34-9.76Z" transform="translate(125.85)"/><path class="cls-9" d="M659.12,801.45c-.12-28.66-42-57-78.12-66.66-49.28-13.16-65.43,14.61-112.1,4.18-52.61-11.76-99.78-62.18-107.33-112.7-5.2-34.77,10.76-45.32,3.58-71.56-8.59-31.37-47.46-51.72-128-71C80.63,446.37,4.55,430.59-56.74,474.21c-71.9,51.18-69.82,147.37-68.84,193.2.74,33.9,8.81,143.87,99.29,226.59,139.74,127.75,358.38,57.47,556-6C650.1,849.4,659.18,815.65,659.12,801.45Z" transform="translate(125.85)"/><path class="cls-10" d="M419.41,877.68,292.64,751.33,490.48,547.69ZM345.83,743.74l50.28,48.8,33.27-134.9Z" transform="translate(125.85)"/><path class="cls-11" d="M407.25,845.18,291.93,733.28,483.54,535.81ZM338.89,731.87l50.29,48.79,33.26-134.9Z" transform="translate(125.85)"/><rect class="cls-12" x="466.87" y="553.06" width="8.86" height="3.44" transform="translate(645.24 -171.57) rotate(44.14)"/><rect class="cls-12" x="462.37" y="556.8" width="4.43" height="3.44" transform="translate(645.97 -165.84) rotate(44.14)"/><rect class="cls-12" x="456.63" y="563.63" width="8.86" height="3.44" transform="translate(649.72 -161.46) rotate(44.14)"/><rect class="cls-12" x="452.13" y="567.36" width="4.43" height="3.44" transform="translate(650.43 -155.73) rotate(44.14)"/><rect class="cls-12" x="446.38" y="574.19" width="8.86" height="3.44" transform="translate(654.18 -151.34) rotate(44.14)"/><rect class="cls-12" x="441.88" y="577.92" width="4.43" height="3.44" transform="translate(654.89 -145.61) rotate(44.14)"/><rect class="cls-12" x="436.13" y="584.75" width="8.86" height="3.44" transform="translate(658.63 -141.22) rotate(44.14)"/><rect class="cls-12" x="431.63" y="588.48" width="4.43" height="3.44" transform="translate(659.35 -135.49) rotate(44.14)"/><rect class="cls-12" x="425.88" y="595.31" width="8.86" height="3.44" transform="translate(663.11 -131.1) rotate(44.14)"/><rect class="cls-12" x="421.38" y="599.05" width="4.43" height="3.44" transform="translate(663.81 -125.37) rotate(44.14)"/><rect class="cls-12" x="415.64" y="605.87" width="8.86" height="3.44" transform="translate(667.56 -120.99) rotate(44.14)"/><rect class="cls-12" x="411.14" y="609.61" width="4.43" height="3.44" transform="translate(668.27 -115.26) rotate(44.14)"/><rect class="cls-12" x="405.39" y="616.43" width="8.86" height="3.44" transform="translate(672.03 -110.87) rotate(44.14)"/><rect class="cls-12" x="400.89" y="620.17" width="4.43" height="3.44" transform="translate(672.74 -105.14) rotate(44.14)"/><rect class="cls-12" x="395.14" y="626.99" width="8.86" height="3.44" transform="translate(676.49 -100.75) rotate(44.14)"/><rect class="cls-12" x="390.64" y="630.73" width="4.43" height="3.44" transform="translate(677.18 -95.02) rotate(44.14)"/><rect class="cls-12" x="384.89" y="637.55" width="8.86" height="3.44" transform="translate(680.94 -90.63) rotate(44.14)"/><rect class="cls-12" x="380.4" y="641.29" width="4.43" height="3.44" transform="translate(681.66 -84.9) rotate(44.14)"/><rect class="cls-12" x="374.65" y="648.11" width="8.86" height="3.44" transform="translate(685.41 -80.51) rotate(44.14)"/><rect class="cls-12" x="370.15" y="651.85" width="4.43" height="3.44" transform="translate(686.12 -74.78) rotate(44.14)"/><rect class="cls-12" x="364.4" y="658.67" width="8.86" height="3.44" transform="translate(689.86 -70.4) rotate(44.14)"/><rect class="cls-12" x="359.9" y="662.41" width="4.43" height="3.44" transform="translate(690.58 -64.67) rotate(44.14)"/><rect class="cls-12" x="354.15" y="669.23" width="8.86" height="3.44" transform="translate(694.32 -60.28) rotate(44.14)"/><rect class="cls-12" x="349.65" y="672.97" width="4.43" height="3.44" transform="translate(695.04 -54.55) rotate(44.14)"/><rect class="cls-12" x="343.91" y="679.79" width="8.86" height="3.44" transform="translate(698.79 -50.16) rotate(44.14)"/><rect class="cls-12" x="339.41" y="683.53" width="4.43" height="3.44" transform="translate(699.5 -44.43) rotate(44.14)"/><rect class="cls-12" x="333.66" y="690.35" width="8.86" height="3.44" transform="translate(703.24 -40.05) rotate(44.14)"/><rect class="cls-12" x="329.16" y="694.09" width="4.43" height="3.44" transform="translate(703.96 -34.31) rotate(44.14)"/><rect class="cls-12" x="323.41" y="700.91" width="8.86" height="3.44" transform="translate(707.72 -29.93) rotate(44.14)"/><rect class="cls-12" x="318.91" y="704.65" width="4.43" height="3.44" transform="translate(708.4 -24.2) rotate(44.14)"/><rect class="cls-12" x="313.16" y="711.47" width="8.86" height="3.44" transform="translate(712.16 -19.82) rotate(44.14)"/><rect class="cls-12" x="308.66" y="715.21" width="4.43" height="3.44" transform="translate(712.88 -14.08) rotate(44.14)"/><rect class="cls-12" x="302.92" y="722.03" width="8.86" height="3.44" transform="translate(716.64 -9.69) rotate(44.14)"/><rect class="cls-12" x="298.42" y="725.77" width="4.43" height="3.44" transform="translate(717.35 -3.96) rotate(44.14)"/><polygon class="cls-12" points="438.92 753.79 595.19 593.41 597.96 582.17 433.98 748.99 438.92 753.79"/><rect class="cls-10" x="63.51" y="542.53" width="215.63" height="284.98" rx="7.88" transform="matrix(-0.96, -0.29, 0.29, -0.96, 259.17, 1390.11)"/><rect class="cls-13" x="46.3" y="553.13" width="211.4" height="256.08" rx="7.88" transform="translate(222.5 1376.9) rotate(-162.87)"/><g class="cls-5"><path class="cls-14" d="M94.6,602.77l147.29,45.39a6.42,6.42,0,0,0,8-4.25q5.15-16.71,10.3-33.41a6.43,6.43,0,0,0-4.25-8L108.67,557.08a6.42,6.42,0,0,0-8,4.25l-10.3,33.41A6.43,6.43,0,0,0,94.6,602.77Z" transform="translate(125.85)"/><path class="cls-15" d="M94.6,602.77l147.29,45.39a6.42,6.42,0,0,0,8-4.25q5.15-16.71,10.3-33.41a6.43,6.43,0,0,0-4.25-8L108.67,557.08a6.42,6.42,0,0,0-8,4.25l-10.3,33.41A6.43,6.43,0,0,0,94.6,602.77Z" transform="translate(125.85)"/></g><path class="cls-16" d="M95.6,599.77l147.29,45.39a6.42,6.42,0,0,0,8-4.25q5.15-16.71,10.3-33.41a6.43,6.43,0,0,0-4.25-8L109.67,554.08a6.42,6.42,0,0,0-8,4.25l-10.3,33.41A6.43,6.43,0,0,0,95.6,599.77Z" transform="translate(125.85)"/><path class="cls-17" d="M95.6,599.77l147.29,45.39a6.42,6.42,0,0,0,8-4.25q5.15-16.71,10.3-33.41a6.43,6.43,0,0,0-4.25-8L109.67,554.08a6.42,6.42,0,0,0-8,4.25l-10.3,33.41A6.43,6.43,0,0,0,95.6,599.77Z" transform="translate(125.85)"/><g class="cls-5"><rect class="cls-6" x="199.02" y="685.82" width="32.8" height="32.8" rx="4" transform="translate(-393.25 701.28) rotate(-72.87)"/><rect class="cls-6" x="156.28" y="672.65" width="32.8" height="32.8" rx="4" transform="translate(-410.81 651.14) rotate(-72.87)"/><rect class="cls-6" x="113.54" y="659.48" width="32.8" height="32.8" rx="4" transform="translate(-428.38 601.01) rotate(-72.87)"/><rect class="cls-6" x="70.8" y="646.31" width="32.8" height="32.8" rx="4" transform="translate(-445.95 550.87) rotate(-72.87)"/><rect class="cls-6" x="184.48" y="733" width="32.8" height="32.8" rx="4" transform="translate(-448.59 720.67) rotate(-72.87)"/><rect class="cls-6" x="141.74" y="719.83" width="32.8" height="32.8" rx="4" transform="translate(-466.16 670.54) rotate(-72.87)"/><rect class="cls-6" x="99" y="706.66" width="32.8" height="32.8" rx="4" transform="translate(-483.73 620.4) rotate(-72.87)"/><rect class="cls-6" x="24.3" y="717.08" width="82.17" height="32.8" rx="4" transform="translate(-528.97 579.96) rotate(-72.87)"/><rect class="cls-6" x="169.94" y="780.18" width="32.8" height="32.8" rx="4" transform="translate(-503.94 740.06) rotate(-72.87)"/><rect class="cls-6" x="127.2" y="767.01" width="32.8" height="32.8" rx="4" transform="translate(-521.51 689.93) rotate(-72.87)"/><rect class="cls-6" x="84.46" y="753.84" width="32.8" height="32.8" rx="4" transform="translate(-539.07 639.79) rotate(-72.87)"/></g><rect class="cls-18" x="200.02" y="682.82" width="32.8" height="32.8" rx="4" transform="translate(-389.67 700.12) rotate(-72.87)"/><rect class="cls-18" x="157.28" y="669.65" width="32.8" height="32.8" rx="4" transform="translate(-407.24 649.98) rotate(-72.87)"/><rect class="cls-18" x="114.54" y="656.48" width="32.8" height="32.8" rx="4" transform="translate(-424.81 599.85) rotate(-72.87)"/><rect class="cls-18" x="71.8" y="643.31" width="32.8" height="32.8" rx="4" transform="translate(-442.37 549.71) rotate(-72.87)"/><rect class="cls-18" x="185.48" y="730" width="32.8" height="32.8" rx="4" transform="translate(-445.02 719.51) rotate(-72.87)"/><rect class="cls-18" x="142.74" y="716.83" width="32.8" height="32.8" rx="4" transform="translate(-462.59 669.38) rotate(-72.87)"/><rect class="cls-18" x="100" y="703.66" width="32.8" height="32.8" rx="4" transform="matrix(0.29, -0.96, 0.96, 0.29, -480.15, 619.24)"/><rect class="cls-18" x="25.3" y="714.08" width="82.17" height="32.8" rx="4" transform="matrix(0.29, -0.96, 0.96, 0.29, -525.39, 578.8)"/><rect class="cls-18" x="170.94" y="777.18" width="32.8" height="32.8" rx="4" transform="translate(-500.37 738.9) rotate(-72.87)"/><rect class="cls-18" x="128.2" y="764.01" width="32.8" height="32.8" rx="4" transform="translate(-517.94 688.77) rotate(-72.87)"/><rect class="cls-18" x="85.46" y="750.84" width="32.8" height="32.8" rx="4" transform="translate(-535.5 638.63) rotate(-72.87)"/><path class="cls-19" d="M263.88,677l-201.3-64.6" transform="translate(125.85)"/></g></g></g></g></svg>